# xmcd
# 
# Track frame offsets:
#     150
#     16497
#     26475
#     41172
#     51937
#     60247
#     76197
#     88237
#     99645
#     114032
#     125510
#     133695
#     147987
#     161000
# 
# Disc length: 2276
# 
# Revision: 2
# Processed by: cddbd v1.5.2PL0 Copyright (c) Steve Scherf et al.
# Submitted via: fre:ac v1.0.17
# 
DISCID=b608e20e
DTITLE=Tom Jones - The Best of Tom Jones, Volume 1
DYEAR=0
DGENRE=Blues
TTITLE0=She's a Lady
TTITLE1=Spanish Harlem
TTITLE2=Unchained Melody
TTITLE3=Green Green Grass of Home
TTITLE4=Starting Over
TTITLE5=My Way
TTITLE6=All by Myself
TTITLE7=The Most Beautifull Girl in the World
TTITLE8=Help Me Make It Through the Night
TTITLE9=You Win Again
TTITLE10=On the Road Again
TTITLE11=You've Lost That Loving Feelin'
TTITLE12=As Time Goes By
TTITLE13=I Thank You
EXTD=
EXTT0=
EXTT1=
EXTT2=
EXTT3=
EXTT4=
EXTT5=
EXTT6=
EXTT7=
EXTT8=
EXTT9=
EXTT10=
EXTT11=
EXTT12=
EXTT13=
PLAYORDER=
